HIERARCHY
ROOT ui
{
	 OFFSET 0 0 0
	 CHANNELS 3 XPosition YPosition Z Position
	 EndSite
	 {
	 OFFSET 0 -1 0
	 }
}
ROOT li
{
	 OFFSET 0 0 0
	 CHANNELS 3 XPosition YPosition Z Position
	 EndSite
	 {
	 OFFSET 0 -1 0
	 }
}
ROOT ul
{
	 OFFSET 0 0 0
	 CHANNELS 3 XPosition YPosition Z Position
	 EndSite
	 {
	 OFFSET 0 -1 0
	 }
}
ROOT ll
{
	 OFFSET 0 0 0
	 CHANNELS 3 XPosition YPosition Z Position
	 EndSite
	 {
	 OFFSET 0 -1 0
	 }
}
ROOT tt
{
	 OFFSET 0 0 0
	 CHANNELS 3 XPosition YPosition Z Position
	 EndSite
	 {
	 OFFSET 0 -1 0
	 }
}
ROOT tb
{
	 OFFSET 0 0 0
	 CHANNELS 3 XPosition YPosition Z Position
	 EndSite
	 {
	 OFFSET 0 -1 0
	 }
}
ROOT td
{
	 OFFSET 0 0 0
	 CHANNELS 3 XPosition YPosition Z Position
	 EndSite
	 {
	 OFFSET 0 -1 0
	 }
}
ROOT v
{
	 OFFSET 0 0 0
	 CHANNELS 3 XPosition YPosition Z Position
	 EndSite
	 {
	 OFFSET 0 -1 0
	 }
}
ROOT bn
{
	 OFFSET 0 0 0
	 CHANNELS 3 XPosition YPosition Z Position
	 EndSite
	 {
	 OFFSET 0 -1 0
	 }
}
MOTION
Frames: 32
Frame Time: 0.002
-0.0010515789985656738	-6.313970088958741E-4	0		0.47478070068359374	-2.34704345703125	0		-1.0479173583984376	-0.026862300872802735	0		-0.7840303955078125	-2.36845947265625	0		1.6139935302734374	-0.7655087280273437	0		3.2666064453125	-0.18489224243164062	0		4.74710791015625	0.08455288696289062	0		5.64803466796875	0.027076684951782226	0		-0.10133464813232422	5.93217626953125	0		
0.043501605987548826	-0.006454758167266846	0		0.4822103576660156	-2.356033447265625	0		-1.04614892578125	-0.022691810607910156	0		-0.8213167114257812	-2.364406982421875	0		1.61165869140625	-0.7652941284179687	0		3.231177001953125	-0.18895596313476562	0		4.7399716796875	0.09282278442382813	0		5.64571435546875	0.02721881103515625	0		-0.08932539367675782	5.94210107421875	0		
0.016227771759033203	-0.0046516480445861815	0		0.48190859985351564	-2.353852783203125	0		-1.072673583984375	-0.03188833999633789	0		-0.77792578125	-2.376199951171875	0		1.628972412109375	-0.7815394287109375	0		3.239299072265625	-0.2140243377685547	0		4.736625	0.0909933853149414	0		5.6533408203125	0.024122604370117186	0		-0.08956385040283203	5.94029345703125	0		
0.052261226654052736	0.007705635070800782	0		0.48476953125	-2.34675146484375	0		-1.0267115478515625	-0.02273734664916992	0		-0.8449332275390625	-2.362482421875	0		1.6328629150390626	-0.7744825439453125	0		3.269648681640625	-0.18759506225585937	0		4.74437158203125	0.09090219879150391	0		5.6510888671875	0.024241743087768556	0		-0.09170403289794922	5.94052099609375	0		
0.014864901542663574	-0.001279378056526184	0		0.5064269714355468	-2.352090576171875	0		-1.0169155883789063	-0.023775077819824218	0		-0.7804012451171874	-2.3737744140625	0		1.606972900390625	-0.7607543334960938	0		3.220115234375	-0.20236639404296874	0		4.73324365234375	0.09323223114013672	0		5.6431640625	0.03548379516601562	0		-0.10994667053222656	5.93310546875	0		
0.01277884578704834	-0.0010751030445098877	0		0.4752579956054688	-2.353233642578125	0		-1.091960205078125	-0.020886613845825196	0		-0.795392333984375	-2.367260009765625	0		1.64281689453125	-0.7634464721679688	0		3.228182373046875	-0.195453125	0		4.7270234375	0.08743928527832032	0		5.63689697265625	0.027674020767211913	0		-0.1119195327758789	5.93331201171875	0		
0.007727705001831055	-0.0038141019344329835	0		0.489385498046875	-2.346417724609375	0		-1.0610439453125	-0.02542604064941406	0		-0.801510986328125	-2.370960693359375	0		1.60078369140625	-0.7643721923828125	0		3.2160380859375	-0.20209236145019532	0		4.73399365234375	0.08533662414550781	0		5.6349140625	0.02775897216796875	0		-0.11379029846191406	5.93350634765625	0		
0.005854211807250977	-0.0036357250213623045	0		0.44438787841796873	-2.34926513671875	0		-1.0830496826171876	-0.030769176483154297	0		-0.823446533203125	-2.37131005859375	0		1.6068253173828124	-0.7674057006835937	0		3.239519775390625	-0.18654946899414063	0		4.72730615234375	0.09353839111328124	0		5.64297021484375	0.024604057312011717	0		-0.10035064697265625	5.942341796875	0		
0.007163702964782715	-5.403609871864319E-4	0		0.47262420654296877	-2.347794921875	0		-1.080740966796875	-0.02767660713195801	0		-0.8340175170898437	-2.3609267578125	0		1.6109141845703125	-0.7734060668945313	0		3.212398681640625	-0.20186862182617188	0		4.730365234375	0.08550389862060546	0		5.63546533203125	0.03579920196533203	0		-0.10297626495361328	5.94353125	0		
0.005524027824401856	-3.8891100883483887E-4	0		0.4331581726074219	-2.33778466796875	0		-1.09333251953125	-0.025254440307617188	0		-0.8028226318359375	-2.366513916015625	0		1.5975611572265624	-0.7600123291015625	0		3.25088232421875	-0.19669155883789063	0		4.72391162109375	0.09368270111083984	0		5.63382666015625	0.035849414825439456	0		-0.11778016662597657	5.93198486328125	0		
0.004004758834838867	-2.498989999294281E-4	0		0.508348876953125	-2.34941357421875	0		-1.057884765625	-0.02694312858581543	0		-0.80438330078125	-2.36636083984375	0		1.596028564453125	-0.759901123046875	0		3.209232666015625	-0.20169186401367187	0		4.7223935546875	0.09373919677734376	0		5.62812548828125	0.027983684539794922	0		-0.12014963531494141	5.9341484375	0		
-4.6153101325035095E-4	-0.003052823066711426	0		0.45503903198242185	-2.343104248046875	0		-1.069235107421875	-0.024569007873535158	0		-0.8099122924804687	-2.370126953125	0		1.5925262451171875	-0.763753662109375	0		3.198879150390625	-0.19941282653808592	0		4.7258125	0.08567446136474609	0		5.63665625	0.02478775215148926	0		-0.12144759368896485	5.9342783203125	0		
0.001328713059425354	-5.042999982833862E-6	0		0.4635143127441406	-2.352221435546875	0		-1.0906456298828124	-0.02997413444519043	0		-0.8671678466796875	-2.366712890625	0		1.599165283203125	-0.7668447875976563	0		3.218179931640625	-0.21782417297363282	0		4.7245361328125	0.08571514129638672	0		5.63537890625	0.024813648223876952	0		-0.10644978332519531	5.94202880859375	0		
0.007329609870910645	0.006940990924835205	0		0.4695478210449219	-2.342283203125	0		-1.0846451416015626	-0.023011287689208983	0		-0.79547314453125	-2.372264892578125	0		1.6041546630859376	-0.759900390625	0		3.233634033203125	-0.19113945007324218	0		4.73165283203125	0.09756418609619141	0		5.632658203125	0.04387628173828125	0		-0.10751617431640625	5.942138671875	0		
0.024124412536621093	-3.696730136871338E-4	0		0.4814936218261719	-2.34148779296875	0		-1.0568765869140626	-0.03155844497680664	0		-0.8443280639648437	-2.362052734375	0		1.5911070556640625	-0.7595472412109375	0		3.197095458984375	-0.2122759704589844	0		4.7323154296875	0.08455410003662109	0		5.62325390625	0.028083547592163086	0		-0.10944680786132813	5.943263671875	0		
-0.0017948299646377563	2.9816898703575133E-4	0		0.4613573913574219	-2.3489619140625	0		-1.0276959228515625	-0.02714085006713867	0		-0.8036414184570313	-2.377908447265625	0		1.58807958984375	-0.7634278564453125	0		3.200280517578125	-0.2073185119628906	0		4.7166015625	0.09392626190185546	0		5.622328125	0.028101453781127928	0		-0.12454139709472656	5.93268359375	0		
0.019288606643676758	-0.004119377136230468	0		0.4594404602050781	-2.35185693359375	0		-1.07445703125	-0.023984100341796873	0		-0.8522705078125	-2.36771044921875	0		1.587251220703125	-0.7633607177734375	0		3.21034130859375	-0.2125230712890625	0		4.7164384765625	0.07893520355224609	0		5.621509765625	0.028118072509765626	0		-0.12528588104248048	5.9327724609375	0		
-0.0033350119590759278	4.6595799922943116E-4	0		0.43381356811523436	-2.346207763671875	0		-1.0593438720703126	-0.03125714302062988	0		-0.8160519409179687	-2.369470458984375	0		1.5982188720703125	-0.7765708618164062	0		3.19896533203125	-0.1972303924560547	0		4.709880859375	0.08609764862060547	0		5.6207197265625	0.025134744644165038	0		-0.11168960571289062	5.94352978515625	0		
-0.003970354080200195	5.410140156745911E-4	0		0.461146240234375	-2.34678173828125	0		-1.095947021484375	-0.029343013763427735	0		-0.8726513061523438	-2.36609912109375	0		1.591037353515625	-0.7563568115234375	0		3.203935302734375	-0.21432243347167967	0		4.72442626953125	0.09377610778808594	0		5.63008203125	0.024920816421508788	0		-0.11128597259521485	5.9425830078125	0		
-0.004531609058380127	6.113160252571106E-4	0		0.4605629577636719	-2.346715576171875	0		-1.060541015625	-0.031090816497802733	0		-0.8044371337890625	-2.375606689453125	0		1.5874007568359374	-0.7592316284179688	0		3.21083056640625	-0.19444863891601563	0		4.71868310546875	0.08591925048828125	0		5.62377587890625	0.036073448181152344	0		-0.1270176773071289	5.93300244140625	0		
-0.008098315238952637	-0.002252387046813965	0		0.44918621826171873	-2.3404013671875	0		-1.1010982666015625	-0.03309385681152344	0		-0.818859375	-2.37121240234375	0		1.584804443359375	-0.7631312866210938	0		3.20791650390625	-0.2123579559326172	0		4.7202080078125	0.08690033721923827	0		5.61909423828125	0.02818759536743164	0		-0.1274670867919922	5.93306982421875	0		
-0.005475564002990723	7.411980032920837E-4	0		0.4466785583496094	-2.342294677734375	0		-1.077320068359375	-0.023578067779541016	0		-0.8213672485351563	-2.3730966796875	0		1.584353515625	-0.7630790405273438	0		3.192473388671875	-0.21197178649902343	0		4.71292626953125	0.09408969116210937	0		5.62439404296875	0.017075931549072266	0		-0.11264424896240234	5.94278564453125	0		
-0.008944863319396973	-0.0021273419857025144	0		0.43117578125	-2.345888916015625	0		-1.0978541259765624	-0.02904791831970215	0		-0.8448450927734374	-2.37549951171875	0		1.586039794921875	-0.7590739135742187	0		3.212651123046875	-0.2304078826904297	0		4.71734033203125	0.08601068878173829	0		5.6281767578125	0.025010417938232422	0		-0.11203392791748047	5.9418251953125	0		
9.197599887847901E-4	0.00770036792755127	0		0.46290878295898436	-2.34156884765625	0		-1.0482076416015624	-0.029134628295898437	0		-0.8021151123046875	-2.37142724609375	0		1.603507080078125	-0.7664332275390625	0		3.203072998046875	-0.1961401824951172	0		4.72111474609375	0.09195645141601562	0		5.63199658203125	0.03295154571533203	0		-0.11237032318115234	5.94188671875	0		
-0.006570320129394531	9.24360990524292E-4	0		0.46050210571289063	-2.344462646484375	0		-1.1054310302734376	-0.023757930755615234	0		-0.8085899658203125	-2.377223876953125	0		1.585340087890625	-0.7589645385742188	0		3.197212890625	-0.21896820068359374	0		4.72662109375	0.08486585998535157	0		5.62748291015625	0.025088794708251955	0		-0.11463548278808594	5.9439931640625	0		
-0.006872732162475586	9.854080080986022E-4	0		0.48302780151367186	-2.3519306640625	0		-1.0659515380859375	-0.03361431503295898	0		-0.8207554321289062	-2.370886474609375	0		1.5850362548828125	-0.758906494140625	0		3.17610009765625	-0.21043136596679687	0		4.7121845703125	0.0792421646118164	0		5.61725244140625	0.02836880111694336	0		-0.12819970703125	5.932357421875	0		
-0.007149943828582764	0.001046205997467041	0		0.45475634765625	-2.351224853515625	0		-1.063160400390625	-0.03062271499633789	0		-0.8230798950195313	-2.3727783203125	0		1.5826668701171875	-0.7627996826171874	0		3.1966328125	-0.21885470581054686	0		4.7119072265625	0.07929963684082031	0		5.61697509765625	0.028425638198852538	0		-0.12847274780273438	5.93241796875	0		
0.014498245239257813	-0.0033999850749969482	0		0.4555725402832031	-2.348188720703125	0		-1.099381591796875	-0.02873392105102539	0		-0.8463956298828125	-2.37518798828125	0		1.584505126953125	-0.7587863159179687	0		3.185727783203125	-0.20354391479492187	0		4.71581396484375	0.08626752471923828	0		5.6266494140625	0.025258296966552733	0		-0.11447938537597656	5.94315234375	0		
-0.00763539981842041	0.0011641000509262085	0		0.43351174926757813	-2.340624755859375	0		-1.0955450439453125	-0.025770549774169923	0		-0.8096563720703125	-2.37698388671875	0		1.590434326171875	-0.7518658447265625	0		3.20777587890625	-0.23500257873535157	0		4.71558203125	0.08633312225341797	0		5.6206728515625	0.036460697174072264	0		-0.11472051239013673	5.94321044921875	0		
0.017146429061889647	6.438109874725342E-4	0		0.4743186950683594	-2.340512939453125	0		-1.0998245849609376	-0.028624711990356447	0		-0.857641357421875	-2.366826416015625	0		1.5871334228515626	-0.7557354736328125	0		3.197351318359375	-0.20069363403320312	0		4.7153701171875	0.08640168762207032	0		5.61627783203125	0.028626012802124023	0		-0.12919786071777345	5.93259130859375	0		
-0.008041283607482911	0.0012728869915008545	0		0.45495391845703126	-2.34801806640625	0		-1.064051513671875	-0.030405033111572267	0		-0.814137939453125	-2.380786865234375	0		1.5838736572265626	-0.7586065673828125	0		3.199857421875	-0.21369419860839844	0		4.70622412109375	0.08867935943603515	0		5.62182861328125	0.0175649356842041	0		-0.12941464233398436	5.93264404296875	0		
-0.011290413856506348	-0.0016077280044555664	0		0.4439256591796875	-2.341714599609375	0		-1.1042906494140625	-0.0324384765625	0		-0.862087158203125	-2.37063818359375	0		1.583696533203125	-0.7585493774414063	0		3.189726318359375	-0.21139932250976562	0		4.710833984375	0.07963894653320312	0		5.61590283203125	0.02877705764770508	0		-0.129624267578125	5.93269287109375	0		
